<svg data-name=" 1" xmlns="http://www.w3.org/2000/svg" viewBox="0 0 72 72" style="width: 30px;">
    <defs>
        <style>
            .cls-1 {
                fill: #2B3033;
            }

            .cls-2 {
                fill: #fff;
            }
        </style>
    </defs>
    <circle class="cls-1" cx="36" cy="36" r="36"></circle>
    <path class="cls-2" d="M41.62,33.6a3.3,3.3,0,0,1-3.25-2.36V18h4.45l2.06,6.44v5.9a3.27,3.27,0,0,1-3.26,3.26Z"></path>
    <path class="cls-2" d="M30.38,33.6a3.27,3.27,0,0,1-3.26-3.26v-5.9L29.18,18h4.45V30.34a3.26,3.26,0,0,1-3.25,3.26Z">
    </path>
    <path class="cls-2"
        d="M19.14,33.6a3.27,3.27,0,0,1-3.26-3.26V24.66L19.43,18h4.78l-1.82,5.7v6.64a3.26,3.26,0,0,1-3.25,3.26Z"></path>
    <path class="cls-2" d="M32.41,45.91h7.31V54H32.41Z"></path>
    <path class="cls-2"
        d="M44.45,54V43.54a2.37,2.37,0,0,0-2.36-2.37H30a2.37,2.37,0,0,0-2.37,2.37V54H21.94a1.64,1.64,0,0,1-1.64-1.65V38.24A8,8,0,0,0,24.76,36h0a8,8,0,0,0,11.18.06h0s.09.08.13.13a8.27,8.27,0,0,0,5.55,2.13h0A7.86,7.86,0,0,0,47.24,36h0a8,8,0,0,0,4.42,2.23h0v14.1A1.65,1.65,0,0,1,50.06,54H44.45Z">
    </path>
    <path class="cls-2"
        d="M52.86,33.6a3.26,3.26,0,0,1-3.25-3.26V23.7L47.79,18H52.6c1.68,3,3.07,5.61,3.52,6.53v5.81a3.27,3.27,0,0,1-3.26,3.26Z">
    </path>
</svg>